<?xml version="1.0" encoding="utf-8"?>
<!-- Generator: Adobe Illustrator 21.0.2, SVG Export Plug-In . SVG Version: 6.00 Build 0)  -->
<svg version="1.1" id="Layer_1" xmlns="http://www.w3.org/2000/svg" xmlns:xlink="http://www.w3.org/1999/xlink" x="0px" y="0px"
	 viewBox="0 0 785.2 538.6" style="enable-background:new 0 0 785.2 538.6;" xml:space="preserve">
<style type="text/css">
	.st0{fill:#BCBEC0;}
	.st1{fill:#7F3F98;}
	.st2{fill:none;}
	.st3{fill:#FFFFFF;}
	.st4{font-family:'Helvetica-Bold';}
	.st5{font-size:34.3218px;}
	.st6{fill:#8DC63F;}
	.st7{fill:#BE1E2D;}
	.st8{fill:#00A79D;}
	.st9{fill:#EC008C;}
	.st10{fill:#F7941D;}
	.st11{font-size:25.7414px;}
	.st12{fill:#00AEEF;}
	.st13{font-size:15.5806px;}
	.st14{fill:none;stroke:#6D6E71;stroke-width:4;stroke-miterlimit:10;}
	.st15{fill:#6D6E71;}
</style>
<path class="st0" d="M486.5,367.7h-196c-11.7,0-21.3-9.6-21.3-21.3V64.2c0-11.7,9.6-21.3,21.3-21.3h196c11.7,0,21.3,9.6,21.3,21.3
	v282.1C507.9,358.1,498.3,367.7,486.5,367.7z"/>
<path class="st1" d="M218.9,192.6H45c-5.7,0-10.3-4.6-10.3-10.3v-72.2c0-5.7,4.6-10.3,10.3-10.3h174c5.7,0,10.3,4.6,10.3,10.3v72.2
	C229.2,188,224.6,192.6,218.9,192.6z"/>
<rect x="34.7" y="133.8" class="st2" width="194.6" height="25"/>
<text transform="matrix(1 0 0 1 54.7065 158.4751)" class="st3 st4 st5">ACTIONS</text>
<path class="st6" d="M475.5,496.6h-174c-5.7,0-10.3-4.6-10.3-10.3v-72.2c0-5.7,4.6-10.3,10.3-10.3h174c5.7,0,10.3,4.6,10.3,10.3
	v72.2C485.8,492,481.2,496.6,475.5,496.6z"/>
<rect x="291.3" y="437.7" class="st2" width="194.6" height="25"/>
<text transform="matrix(1 0 0 1 344.6924 462.4258)" class="st3 st4 st5">VIEW</text>
<rect x="291.3" y="59.5" class="st2" width="194.6" height="25"/>
<text transform="matrix(1 0 0 1 329.4331 84.1948)" class="st3 st4 st5">STORE</text>
<path class="st7" d="M734.4,192.7h-174c-5.7,0-10.3-4.6-10.3-10.3v-72.2c0-5.7,4.6-10.3,10.3-10.3h174c5.7,0,10.3,4.6,10.3,10.3
	v72.2C744.7,188.1,740,192.7,734.4,192.7z"/>
<rect x="550.1" y="133.9" class="st2" width="194.6" height="25"/>
<text transform="matrix(1 0 0 1 618.7842 158.5591)" class="st3 st4 st5">API</text>
<path class="st8" d="M478.2,269.7H298.7c-4.1,0-7.5-3.4-7.5-7.5v-34.7c0-4.1,3.4-7.5,7.5-7.5h179.5c4.1,0,7.5,3.4,7.5,7.5v34.7
	C485.8,266.3,482.4,269.7,478.2,269.7z"/>
<rect x="291.2" y="233.2" class="st2" width="194.6" height="25"/>
<text transform="matrix(1 0 0 1 303.6177 257.8896)" class="st3 st4 st5">REDUCER</text>
<path class="st9" d="M478.2,344.6H298.7c-4.1,0-7.5-3.4-7.5-7.5v-34.7c0-4.1,3.4-7.5,7.5-7.5h179.5c4.1,0,7.5,3.4,7.5,7.5V337
	C485.8,341.2,482.4,344.6,478.2,344.6z"/>
<rect x="291.2" y="307.4" class="st2" width="194.6" height="25"/>
<text transform="matrix(1 0 0 1 332.2251 332.0332)" class="st3 st4 st5">STATE</text>
<path class="st10" d="M475.5,192.5h-174c-5.7,0-10.3-4.6-10.3-10.3V110c0-5.7,4.6-10.3,10.3-10.3h174c5.7,0,10.3,4.6,10.3,10.3v72.2
	C485.8,187.9,481.1,192.5,475.5,192.5z"/>
<rect x="291.2" y="117.4" class="st2" width="194.6" height="25"/>
<text transform="matrix(1 0 0 1 299.8198 135.8848)" class="st3 st4 st11">MIDDLEWARE</text>
<path class="st12" d="M470.7,182.4H305.5c-3.1,0-5.7-2.6-5.7-5.7v-19.9c0-3.1,2.6-5.7,5.7-5.7h165.2c3.1,0,5.7,2.6,5.7,5.7v19.9
	C476.4,179.8,473.9,182.4,470.7,182.4z"/>
<rect x="299.8" y="160.9" class="st2" width="176.6" height="22.7"/>
<text transform="matrix(1 0 0 1 305.8701 172.126)" class="st3 st4 st13">DISPATCH FUNCTION</text>
<g>
	<g>
		<line class="st14" x1="485.8" y1="126.4" x2="544.3" y2="126.4"/>
		<g>
			<polygon class="st15" points="542,134.4 555.8,126.4 542,118.4 			"/>
		</g>
	</g>
</g>
<g>
	<g>
		<line class="st14" x1="492.6" y1="166.4" x2="550.1" y2="166.4"/>
		<g>
			<polygon class="st15" points="495,174.4 481.1,166.4 495,158.4 			"/>
		</g>
	</g>
</g>
<g>
	<g>
		<line class="st14" x1="229.2" y1="146.4" x2="285.8" y2="146.4"/>
		<g>
			<polygon class="st15" points="283.5,154.4 297.3,146.4 283.5,138.4 			"/>
		</g>
	</g>
</g>
<g>
	<g>
		<line class="st14" x1="386.6" y1="182.3" x2="386.6" y2="212.8"/>
		<g>
			<polygon class="st15" points="378.6,210.5 386.6,224.3 394.6,210.5 			"/>
		</g>
	</g>
</g>
<g>
	<g>
		<line class="st14" x1="386.6" y1="269.3" x2="386.6" y2="288.3"/>
		<g>
			<polygon class="st15" points="378.6,286 386.6,299.8 394.6,286 			"/>
		</g>
	</g>
</g>
<g>
	<g>
		<line class="st14" x1="386.6" y1="344.3" x2="386.6" y2="399.7"/>
		<g>
			<polygon class="st15" points="378.6,397.4 386.6,411.2 394.6,397.4 			"/>
		</g>
	</g>
</g>
<g>
	<g>
		<path class="st14" d="M291.2,450.3H154.6c-12.5,0-22.6-10.1-22.6-22.6V197.3"/>
		<g>
			<polygon class="st15" points="139.9,199.6 131.9,185.8 124,199.6 			"/>
		</g>
	</g>
</g>
<g>
	<g>
		<path class="st14" d="M285.8,246.4h-37.6c-10.5,0-19,8.5-19,19v36c0,10.5,8.5,19,19,19h43.1"/>
		<g>
			<polygon class="st15" points="283.5,238.4 297.3,246.4 283.5,254.4 			"/>
		</g>
	</g>
</g>
</svg>
